<?xml version="1.0" standalone="no"?>
<!DOCTYPE svg PUBLIC "-//W3C//DTD SVG 1.1//EN" "http://www.w3.org/Graphics/SVG/1.1/DTD/svg11.dtd" >
<!--
2013-9-30: Created.
-->
<svg>
<metadata>
Created by iconfont
</metadata>
<defs>

<font id="iconfont" horiz-adv-x="1024" >
  <font-face
    font-family="iconfont"
    font-weight="500"
    font-stretch="normal"
    units-per-em="1024"
    ascent="896"
    descent="-128"
  />
    <missing-glyph />
    
    <glyph glyph-name="feedback" unicode="&#58935;" d="M955.714775 853.231941L68.285221 853.231941c-37.70167 0-68.263733-30.010501-68.263733-67.034742l0-703.843306c0-37.024242 30.563086-67.034742 68.263733-67.034742l339.694679 0 104.020098-100.550067 102.287641 100.550067 341.427136 0c37.70167 0 68.263733 30.010501 68.263733 67.034742L1023.978509 786.197198C1023.978509 823.22144 993.415422 853.231941 955.714775 853.231941zM255.957531 367.02949c-37.743626 0-68.343551 30.05348-68.343551 67.128887 0 37.072337 30.599925 67.125817 68.343551 67.125817s68.343551-30.05348 68.343551-67.125817C324.301082 397.08297 293.70218 367.02949 255.957531 367.02949zM512.084932 367.02949c-37.743626 0-68.343551 30.05348-68.343551 67.128887 0 37.072337 30.599925 67.125817 68.343551 67.125817s68.343551-30.05348 68.343551-67.125817C580.428483 397.08297 549.828558 367.02949 512.084932 367.02949zM784.818547 367.02949c-37.743626 0-68.343551 30.05348-68.343551 67.128887 0 37.072337 30.599925 67.125817 68.343551 67.125817s68.343551-30.05348 68.343551-67.125817C853.162098 397.08297 822.563196 367.02949 784.818547 367.02949z"  horiz-adv-x="1024" />

    
    <glyph glyph-name="add" unicode="&#59418;" d="M864 448L512 448 512 800C512 817.92 497.92 832 480 832 462.08 832 448 817.92 448 800L448 448 96 448C78.08 448 64 433.92 64 416 64 398.08 78.08 384 96 384L448 384l0-352C448 14.080000000000041 462.08 0 480 0 497.92 0 512 14.080000000000041 512 32L512 384l352 0C881.92 384 896 398.08 896 416 896 433.92 881.92 448 864 448z"  horiz-adv-x="1024" />

    
    <glyph glyph-name="email" unicode="&#59432;" d="M896.64 686.08C877.44 696.96 855.68 704 832 704L256 704C232.32 704 210.56 696.96 191.36 686.08L544 333.44000000000005 896.64 686.08zM942.08 640.64L568.32 266.88C561.92 260.48 552.96 257.28 544 257.91999999999996 535.04 257.28 526.08 260.48 519.68 266.88L145.92 640.64C135.04 621.44 128 599.6800000000001 128 576l0-448c0-70.4 57.6-128 128-128l576 0c70.4 0 128 57.6 128 128L960 576C960 599.6800000000001 952.96 621.44 942.08 640.64z"  horiz-adv-x="1024" />

    
    <glyph glyph-name="wallet" unicode="&#58993;" d="M970.102 58.38300000000004l0-53.895c0-59.284-48.505-107.789-107.789-107.789L107.789-103.30100000000004C47.965-103.29999999999995 0-54.79600000000005 0 4.489000000000033l0 754.525C0 818.298 47.966 866.802 107.789 866.802l754.525 0c59.284 0 107.789-48.505 107.789-107.789l0-53.895L485.051 705.1179999999999c-59.822 0-107.789-48.505-107.789-107.789l0-431.157c0-59.284 47.966-107.789 107.789-107.789L970.102 58.38300000000004zM485.051 166.173l538.946 0L1023.997 597.3299999999999 485.051 597.3299999999999 485.051 166.173zM700.63 300.909c-44.733 0-80.842 36.109-80.842 80.842s36.109 80.842 80.842 80.842 80.842-36.109 80.842-80.842S745.363 300.909 700.63 300.909z"  horiz-adv-x="1024" />

    
    <glyph glyph-name="star" unicode="&#58891;" d="M509.956458 770.299113l126.648468-241.487983 257.600963-52.040237L714.888873 275.488611l32.546254-273.694499-237.478669 117.137861-237.491972-117.137861 32.558533 273.694499L125.700887 476.770893l257.600963 52.040237L509.956458 770.299113"  horiz-adv-x="1024" />

    
    <glyph glyph-name="edit" unicode="&#58889;" d="M815.9424 563.9808l-123.8208 123.9104 64.0448 64.0896c21.344 21.3568 55.5072 21.3568 72.5824 0l51.2384-51.2768c21.3504-21.3632 21.3504-55.5456 0-72.64L815.9424 563.9808 815.9424 563.9808zM457.2992 205.08159999999998L333.4784 328.99199999999996l337.2928 333.2544 123.8208-123.8976L457.2992 205.08159999999998 457.2992 205.08159999999998zM235.2832 102.54079999999999l76.8512 200.8128 123.8208-123.904L235.2832 102.54079999999999 235.2832 102.54079999999999zM866.0928 59.81439999999998c17.088 0 29.9008-12.8128 29.9008-29.9008 0-17.0944-12.8128-29.9136-29.9008-29.9136L157.9072 0c-18.72 0-29.9072 12.8192-29.9072 29.9136 0 17.088 12.8128 29.9008 29.9072 29.9008L866.0928 59.81439999999998 866.0928 59.81439999999998zM865.8112 59.81439999999998"  horiz-adv-x="1024" />

    
    <glyph glyph-name="arrow_down" unicode="&#58917;" d="M948.560332 614.820016c-13.765515 13.833053-36.127825 13.833053-49.89334 0L511.991302 227.40856900000006 125.313565 614.820016c-13.763468 13.798261-36.093033 13.798261-49.856501 0-13.799284-13.798261-13.799284-36.161594 0-49.993624l410.857439-411.674037c7.067976-7.085372 16.402575-10.521634 25.675776-10.331299 9.274224-0.191358 18.608823 3.245927 25.677822 10.331299l410.891208 411.708829c6.863315 6.89913 10.331299 15.940041 10.331299 24.979928S955.423647 607.921909 948.560332 614.820016z"  horiz-adv-x="1024" />

    
    <glyph glyph-name="arrow_u" unicode="&#58882;" d="M510.993 619.789c1.508 0 3.018 0 4.525 0 28.658-2.011 49.269-23.126 78.429-52.287l358.962-359.466c9.552-9.552 9.552-25.639 0-35.191s-25.639-9.552-35.191 0l-359.465 359.465c-20.613 20.613-36.7 36.7-46.755 37.706-14.581 1.007-46.254-30.668-56.812-41.226l-355.444-355.444c-9.552-9.552-25.639-9.552-35.191 0s-9.552 25.639 0 35.191l355.444 355.444c34.188 34.188 61.839 55.805 91.501 55.805z"  horiz-adv-x="1024" />

    
    <glyph glyph-name="arrow_d" unicode="&#58888;" d="M513.007 148.211c-1.508 0-3.018 0-4.525 0-28.657 2.011-49.269 23.126-78.429 52.287l-358.962 359.465c-9.552 9.552-9.552 25.639 0 35.191s25.639 9.552 35.191 0l359.465-359.465c20.613-20.613 36.7-36.7 46.755-37.706 14.58-1.007 46.254 30.668 56.812 41.226l355.444 355.444c9.552 9.552 25.639 9.552 35.191 0s9.552-25.639 0-35.191l-355.444-355.444c-34.188-34.188-61.839-55.805-91.501-55.805z"  horiz-adv-x="1024" />

    
    <glyph glyph-name="arrow_r" unicode="&#58892;" d="M339.054-66.966c-5.531 0-11.061 1.508-15.584 5.531-11.061 8.548-12.567 24.132-4.022 35.191l301.649 383.095c0 0 0.502 0.502 0.502 0.502 40.22 47.763 39.717 60.832-4.525 108.593l-296.119 315.724c-9.552 10.054-9.050 25.639 1.007 35.191s25.639 9.050 35.191-1.007l296.119-315.724c61.335-65.356 62.843-108.093 6.537-174.454l-301.649-383.095c-4.525-6.537-12.066-9.552-19.104-9.552z"  horiz-adv-x="1024" />

    
    <glyph glyph-name="arrow_l" unicode="&#58905;" d="M686.454-52.89c-7.54 0-14.58 3.018-19.607 9.552l-296.623 376.559c-55.302 65.861-53.794 107.588 6.537 171.94l291.595 310.698c9.552 10.054 25.139 10.559 35.191 1.007 10.054-9.552 10.559-25.139 1.007-35.191l-291.091-310.698c-43.236-46.755-44.24-59.324-4.525-106.079 0 0 0.502-0.502 0.502-0.502l296.623-376.559c8.548-11.061 6.537-26.645-4.022-35.191-4.525-3.518-10.054-5.531-15.584-5.531z"  horiz-adv-x="1024" />

    
    <glyph glyph-name="close" unicode="&#59163;" d="M695.192661 575.864502c-10.117149 10.117149-26.015526 10.117149-36.132675 0L502.244178 419.048694 345.42837 575.864502c-10.117149 10.117149-26.015526 10.117149-36.132675 0s-10.117149-26.015526 0-36.132674L466.111503 382.91602 310.018349 226.82286499999998c-10.117149-10.117149-10.117149-26.015526 0-35.410021 5.058574-5.058574 11.562456-7.226535 18.066337-7.226535s13.007763 2.16796 18.066337 7.226535l156.815808 156.815808 156.815808-156.815808c5.058574-5.058574 11.562456-7.226535 18.066338-7.226535s13.007763 2.16796 18.066337 7.226535c10.117149 10.117149 10.117149 26.015526 0 35.410021L538.376853 383.63867300000004l156.815808 156.815808c10.117149 9.394495 10.117149 26.015526 0 35.410021zM908.375441 409.654199c-0.722653 13.730416-13.007763 24.570219-26.738179 23.847565-13.730416-0.722653-24.570219-12.285109-23.847565-26.738179 0-6.503881 0.722653-12.285109 0.722653-18.788991 0-198.729711-161.151729-359.88144-359.88144-359.881439S138.749471 189.24488399999996 138.749471 387.974594c0 198.729711 161.151729 359.88144 359.881439 359.88144 52.753705 0 103.33945-10.839802 151.03458-33.242061 5.058574-2.16796 10.839802-5.058574 15.898377-7.949188 12.285109-6.503881 27.460833-1.445307 33.964715 10.839802 6.503881 12.285109 1.445307 27.460833-10.839803 33.964714-5.781228 2.890614-12.285109 6.503881-18.788991 9.394496-54.199012 25.292872-112.011291 37.577982-171.991531 37.577981-226.190543 0-410.467184-184.276641-410.467184-410.467184s184.276641-410.467184 410.467184-410.467184 410.467184 184.276641 410.467184 410.467184c0.722653 7.226535 0.722653 14.45307 0 21.679605zM865.738885 506.489767m-27.460833 0a27.460833 27.460833 0 1 1 54.921666 0 27.460833 27.460833 0 1 1-54.921666 0ZM825.270289 595.376147m-27.460832 0a27.460833 27.460833 0 1 1 54.921665 0 27.460833 27.460833 0 1 1-54.921665 0ZM759.508821 671.254764m-27.460832 0a27.460833 27.460833 0 1 1 54.921665 0 27.460833 27.460833 0 1 1-54.921665 0Z"  horiz-adv-x="1024" />

    
    <glyph glyph-name="password" unicode="&#58894;" d="M213.67164902 684.0254072600001l134.98668453-113.20779567c49.00249994 38.82016229 119.00607127 43.34564569 172.81689732 5.65685425 65.61950929-45.96194078 81.52941187-136.40089809 35.63818177-201.94969671s-136.40089809-81.52941187-201.94969671-35.63818177c-60.95260454 42.70924958-78.27672068 123.53155467-43.76990975 187.45400769L176.40712165 639.54839072c-93.26738444-133.99673503-70.63996744-319.25871171 56.85138521-426.2439677 134.98668453-113.20779567 336.15856378-95.60083682 449.43707012 39.31513704 113.20779567 134.98668453 95.60083682 336.15856378-39.31513704 449.43707012C515.8890873 809.04188617 329.4250291 799.07168056 213.67164902 684.0254072600001zM756.941789 182.89883142999997c1.34350288 1.48492424 2.8991378 2.8991378 4.17193001 4.45477272 12.30365799 14.70782105 22.98097039 30.19345956 32.3147799 46.17407281l-21.28391411 49.1439213c-12.37436867-23.54665581-27.1529004-46.24478349-44.97199128-67.45798693-17.81909089-21.21320344-37.54737008-39.81011178-58.61915217-56.07356775L843.70379105 117.49145417l-21.56675682 49.85102807-65.19524523 15.55634919z"  horiz-adv-x="1024" />

    
    <glyph glyph-name="aboutus" unicode="&#58942;" d="M958.144106 79.41495699999996c0-78.526471-63.212694-142.190443-141.178393-142.190443H207.033263c-77.964676 0-141.178393 63.663972-141.178393 142.190443V693.745576c0 78.526471 63.212694 142.190443 141.178393 142.190443h609.93245c77.964676 0 141.178393-63.663972 141.178393-142.190443v-614.330619zM516.502547 663.8097769999999c-161.89625 0-293.613154-131.716904-293.613154-293.566082 0-61.788252 19.041682-120.958886 55.076386-171.131589 7.90197-10.901281 23.086811-13.376659 34.036188-5.569856a24.26259 24.26259 0 0 1 7.210215 8.262175 258.82893 258.82893 0 0 1 28.432563-29.008685 24.292266 24.292266 0 0 1-7.890714-7.005554c-7.854898-10.901281-5.379521-26.134217 5.569855-34.036187 50.125631-36.035728 109.296265-55.123458 171.178661-55.123459 161.897274 0 293.613154 131.716904 293.613155 293.613155 0.001023 161.849178-131.715881 293.566082-293.613155 293.566082z m148.366096-219.859383c0-26.291806-21.305235-47.597041-47.597041-47.597042-26.285666 0-47.608298 21.305235-47.608298 47.597042 0 26.306132 21.323655 47.605228 47.608298 47.605227 26.291806 0 47.597041-21.299095 47.597041-47.605227z m-198.865233 0c0-26.291806-21.314445-47.597041-47.600111-47.597042-26.291806 0-47.593971 21.305235-47.593972 47.597042 0 26.306132 21.302165 47.605228 47.593972 47.605227 26.285666 0 47.600111-21.299095 47.600111-47.605227z m-72.458266-71.686693c14.980179 0 27.101241-12.121062 27.101242-27.101241 0-52.877301 42.97886-95.857185 95.857185-95.857185s95.857185 42.97886 95.857184 95.857185c0 14.980179 12.121062 27.101241 27.101242 27.101241 14.980179 0 27.101241-12.121062 27.101241-27.101241 0-82.730213-67.328431-150.058644-150.058644-150.058644-82.730213 0-150.058644 67.328431-150.058644 150.058644-0.001023 14.980179 12.120039 27.101241 27.099194 27.101241z"  horiz-adv-x="1024" />

    
    <glyph glyph-name="quit" unicode="&#58890;" d="M463.278798-128H63.252087c-34.190317 0-63.252087 29.06177-63.252087 63.252087V832.747913C0 866.93823 27.352254 896 63.252087 896h400.026711c34.190317 0 63.252087-29.06177 63.252087-63.252087s-27.352254-63.252087-63.252087-63.252087H124.794658v-770.991652h338.48414c34.190317 0 63.252087-29.06177 63.252087-63.252087s-29.06177-63.252087-63.252087-63.252087zM1032.547579 424.173623L704.320534 759.238731c-35.899833 37.609349-99.15192 11.966611-99.15192-41.02838V639.572621c0-32.480801-25.642738-58.123539-58.123539-58.123539H278.651085c-32.480801 0-58.123539-25.642738-58.123539-58.123539v-278.651086c0-32.480801 25.642738-58.123539 58.123539-58.123539H547.045075c32.480801 0 58.123539-25.642738 58.123539-58.123539v-78.63773c0-51.285476 63.252087-76.928214 99.15192-41.02838l328.227045 333.355592c22.223706 23.933222 22.223706 59.833055 0 82.056762z"  horiz-adv-x="1049" />

    
    <glyph glyph-name="tijiao" unicode="&#58962;" d="M921.6 896H102.4a102.4 102.4 0 0 1-102.4-102.4v-819.2a102.4 102.4 0 0 1 102.4-102.4h819.2a102.4 102.4 0 0 1 102.4 102.4V793.6a102.4 102.4 0 0 1-102.4 102.4z m51.2-921.6a51.2 51.2 0 0 0-51.2-51.2H102.4a51.2 51.2 0 0 0-51.2 51.2V793.6a51.2 51.2 0 0 0 51.2 51.2h819.2a51.2 51.2 0 0 0 51.2-51.2v-819.2zM512 204.8a25.6 25.6 0 0 1-25.6-25.6v-25.6a25.6 25.6 0 0 1 51.2 0v25.6a25.6 25.6 0 0 1-25.6 25.6zM530.0992 629.5808a25.5232 25.5232 0 0 1-36.1984 0l-217.216-217.216a25.5744 25.5744 0 1 1 36.1984-36.1984L486.4 549.6832V256a25.6 25.6 0 0 1 51.2 0V549.6576l173.5168-173.5168a25.5744 25.5744 0 1 1 36.1984 36.1984l-217.216 217.2416z"  horiz-adv-x="1024" />

    
    <glyph glyph-name="pause" unicode="&#58880;" d="M512-71.11099999999999c-250.311 0-455.111 204.8-455.111 455.111S261.689 839.111 512 839.111 967.111 634.3109999999999 967.111 384 762.311-71.11099999999999 512-71.11099999999999z m0 56.889c221.867 0 398.222 176.355 398.222 398.222S733.867 782.222 512 782.222 113.778 605.867 113.778 384 290.133-14.22199999999998 512-14.22199999999998zM796.444 384l-455.11-227.556V611.556z"  horiz-adv-x="1024" />

    
    <glyph glyph-name="submit" unicode="&#58886;" d="M529.482473 609.652364c-4.528873 4.482327-10.9568 6.018327-17.482473 4.980363-6.525673 1.042618-12.958255-0.493382-17.482473-4.980363l-198.390691-196.850037c-8.3456-8.271127-7.028364-23.119127 2.937019-33.172945 9.974691-10.044509 24.808727-11.478109 33.154327-3.197673l155.671273 154.451782v-263.242473c0-12.855855 10.416873-23.272727 23.272727-23.272727s23.272727 10.416873 23.272727 23.272727V532.545164l157.346909-156.1088c8.3456-8.280436 23.179636-6.846836 33.154327 3.197672 9.965382 10.053818 11.282618 24.901818 2.937019 33.172946L529.482473 609.652364zM512 222.65483600000005a23.272727 23.272727 0 0 1-23.272727-23.272727v-24.827345c0-12.855855 10.416873-23.272727 23.272727-23.272728s23.272727 10.416873 23.272727 23.272728v24.827345a23.272727 23.272727 0 0 1-23.272727 23.272727zM866.774109 852.419491H157.221236c-62.664145 0-113.640727-50.981236-113.640727-113.640727v-709.552873c0-62.664145 50.976582-113.645382 113.640727-113.645382H866.769455c62.664145 0 113.645382 50.981236 113.645381 113.645382V738.778764c0.004655 62.664145-50.976582 113.640727-113.640727 113.640727z m53.136291-823.1936c0-29.300364-23.835927-53.136291-53.136291-53.136291H157.221236c-29.300364 0-53.131636 23.835927-53.131636 53.136291V738.778764c0 29.295709 23.831273 53.131636 53.131636 53.131636H866.769455c29.300364 0 53.136291-23.835927 53.13629-53.131636v-709.552873z"  horiz-adv-x="1024" />

    
    <glyph glyph-name="next" unicode="&#58946;" d="M0 383.9C0 101.20000000000005 229.3-128 512-128c282.8 0 512 229.2 512 512S794.8 896 512 896v-0.1C229.2 895.9 0 666.7 0 383.9z m46.5 0C46.5 640.6 255.3 849.4 512 849.4h8.3C773.1 844.9 977.5 637.9 977.5 384c0-256.7-208.8-465.5-465.5-465.5-256.6 0-465.4 208.8-465.5 465.4zM418.4 613L638 399.1c4.5-4.4 7-10.3 7-16.6s-2.4-12.2-6.9-16.6L425.9 155.10000000000002c-4.5-4.5-10.5-6.8-16.4-6.8-6 0-12 2.3-16.5 6.9-9 9.1-9 23.9 0.1 32.9l195.6 194.1-202.8 197.5c-9.2 9-9.4 23.7-0.4 32.9s23.7 9.4 32.9 0.4z"  horiz-adv-x="1024" />

    
    <glyph glyph-name="prev" unicode="&#58947;" d="M512 895.9C229.2 896 0 666.8 0 384s229.2-512 512-512c282.7 0 512 229.2 512 511.9 0 282.8-229.2 512-512 512z m0-977.4C255.3-81.5 46.5 127.29999999999995 46.5 384c0 253.9 204.3 460.9 457.2 465.4h8.3c256.7 0 465.5-208.8 465.5-465.4-0.1-256.7-208.9-465.5-465.5-465.5zM605.6 613L385.9 399.1c-4.5-4.4-7-10.3-7-16.6s2.4-12.2 6.9-16.6l212.4-210.8c4.5-4.5 10.5-6.8 16.4-6.8 6 0 12 2.3 16.5 6.9 9 9.1 9 23.9-0.1 32.9L435.4 382.29999999999995l202.7 197.4c9.2 9 9.4 23.7 0.4 32.9s-23.7 9.4-32.9 0.4z"  horiz-adv-x="1024" />

    
    <glyph glyph-name="avatar" unicode="&#58908;" d="M512.147294 709.508871A325.518248 325.518248 0 1 1 837.665543 383.99062200000003 325.518248 325.518248 0 0 1 512.147294 709.508871zM431.30667 616.380471a128.051549 128.051549 0 0 0 67.205506 27.755281A129.344999 129.344999 0 1 0 431.30667 616.380471z m295.715005-435.946541a31.635631 31.635631 0 0 0-17.515469-25.976788 98.409987 98.409987 0 0 0-33.19855-10.77875 496.415329 496.415329 0 0 0-83.858674-5.389375h-167.070625c-18.323875 0-36.539962 0.8623-54.756049 2.15575a151.549224 151.549224 0 0 0-48.504375 10.132025 40.474206 40.474206 0 0 0-20.749094 17.084319 34.276425 34.276425 0 0 0-3.988137 16.168125 157.585324 157.585324 0 0 0 19.940687 85.529381 163.028593 163.028593 0 0 0 86.23 73.187712 168.417968 168.417968 0 0 0 60.576574 10.77875h95.984769a166.423899 166.423899 0 0 0 111.775637-41.013144 155.106212 155.106212 0 0 0 52.708087-91.619374 170.196462 170.196462 0 0 0 2.209644-40.258631zM512.147294-128A512.583454 512.583454 0 0 0 0.156672 397.248485C7.378434 675.394127 238.42094 898.35257 516.674369 895.981245a508.541423 508.541423 0 0 0 277.175555-84.397612 16.545381 16.545381 0 0 0 4.3115-23.335994 16.491487 16.491487 0 0 0-22.581481-4.203712 477.983666 477.983666 0 1 1 170.681506-197.358912 16.437594 16.437594 0 0 0 7.383443 21.5575 16.168125 16.168125 0 0 0 22.4198-7.652912A506.06231 506.06231 0 0 0 1024.137917 383.99062200000003a512.583454 512.583454 0 0 0-511.990623-511.990622zM927.183061 672.645546m-18.862812 0a18.862812 18.862812 0 1 1 37.725625 0 18.862812 18.862812 0 1 1-37.725625 0Z"  horiz-adv-x="1024" />

    
    <glyph glyph-name="exam" unicode="&#58909;" d="M512.147294 709.508871A325.518248 325.518248 0 1 1 837.665543 383.99062200000003 325.518248 325.518248 0 0 1 512.147294 709.508871z m9.808663-78.199831a19.509537 19.509537 0 0 0 27.916962 6.952294l68.283381-39.558013a19.186175 19.186175 0 0 0 6.8984-26.946874l-19.779006-33.6297-101.913081 59.283124z m-109.835462-421.449123l-67.2594-37.725625a20.048475 20.048475 0 0 0-29.695456 16.81485l-0.970087 77.17585a18.862812 18.862812 0 0 0 2.964156 9.862556l175.100793 303.906855 102.883168-59.283125L420.042876 216.91999799999996a26.623512 26.623512 0 0 0-7.922381-7.060081z m278.037855-0.970087H531.872407a19.779006 19.779006 0 1 0 0 39.558012H689.996669a19.779006 19.779006 0 0 0 0-39.558012z m0 79.169918h-98.948925a19.779006 19.779006 0 0 0 0 39.558012H689.996669a19.779006 19.779006 0 0 0 0-39.558012zM512.147294-128A512.583454 512.583454 0 0 0 0.156672 397.248485C7.378434 675.394127 238.42094 898.35257 516.674369 895.981245a508.541423 508.541423 0 0 0 277.175555-84.397612 16.545381 16.545381 0 0 0 4.3115-23.335994 16.491487 16.491487 0 0 0-22.581481-4.203712 477.983666 477.983666 0 1 1 170.681506-197.358912 16.437594 16.437594 0 0 0 7.383443 21.5575 16.168125 16.168125 0 0 0 22.4198-7.652912A506.06231 506.06231 0 0 0 1024.137917 383.99062200000003a512.583454 512.583454 0 0 0-511.990623-511.990622zM927.183061 672.645546m-18.647237 0a18.647237 18.647237 0 1 1 37.294475 0 18.647237 18.647237 0 1 1-37.294475 0Z"  horiz-adv-x="1024" />

    
    <glyph glyph-name="datika" unicode="&#59798;" d="M128 832c-38.4 0-64-25.6-64-64v-768c0-38.4 25.6-64 64-64h768c38.4 0 64 25.6 64 64V768c0 38.4-25.6 64-64 64H128z m0 64h768c70.4 0 128-57.6 128-128v-768c0-70.4-57.6-128-128-128H128c-70.4 0-128 57.6-128 128V768C0 838.4 57.6 896 128 896zM281.6 633.6c19.2 0 32-12.8 32-32s-12.8-32-32-32H172.8c-19.2 0-32 12.8-32 32s12.8 32 32 32h108.8z m288 0c19.2 0 32-12.8 32-32s-12.8-32-32-32H454.4c-19.2 0-32 12.8-32 32s12.8 32 32 32h115.2z m281.6 0c19.2 0 32-12.8 32-32s-12.8-32-32-32h-115.2c-19.2 0-32 12.8-32 32s12.8 32 32 32h115.2zM281.6 416c19.2 0 32-12.8 32-32s-12.8-32-32-32H172.8c-19.2 0-32 12.8-32 32s12.8 32 32 32h108.8z m288 0c19.2 0 32-12.8 32-32s-12.8-32-32-32H454.4c-19.2 0-32 12.8-32 32s12.8 32 32 32h115.2z m281.6 0c19.2 0 32-12.8 32-32s-12.8-32-32-32h-115.2c-19.2 0-32 12.8-32 32s12.8 32 32 32h115.2z m-569.6-217.6c19.2 0 32-12.8 32-32s-12.8-32-32-32H172.8c-19.2 0-32 12.8-32 32s12.8 32 32 32h108.8z m288 0c19.2 0 32-12.8 32-32s-12.8-32-32-32H454.4c-19.2 0-32 12.8-32 32s12.8 32 32 32h115.2z m281.6 0c19.2 0 32-12.8 32-32s-12.8-32-32-32h-115.2c-19.2 0-32 12.8-32 32s12.8 32 32 32h115.2z"  horiz-adv-x="1024" />

    
    <glyph glyph-name="apply" unicode="&#58887;" d="M809.632323 880.484848H213.850505C140.670707 880.484848 81.454545 821.268687 81.454545 748.088889v-728.177778c0-73.179798 59.216162-132.39596 132.39596-132.395959h595.781818c73.179798 0 132.39596 59.216162 132.39596 132.395959V748.088889C942.028283 821.268687 882.682828 880.484848 809.632323 880.484848z m66.19798-860.573737c0-36.589899-29.608081-66.19798-66.19798-66.19798H213.850505c-36.589899 0-66.19798 29.608081-66.19798 66.19798V748.088889c0 36.589899 29.608081 66.19798 66.19798 66.19798h595.781818c36.589899 0 66.19798-29.608081 66.19798-66.19798v-728.177778z m0 0M280.048485 152.30707099999995h463.385858c18.230303 0 33.09899-14.868687 33.09899-33.09899 0-18.230303-14.868687-33.09899-33.09899-33.09899H280.048485c-18.230303 0-33.09899 14.868687-33.09899 33.09899 0 18.230303 14.739394 33.09899 33.09899 33.09899z m0 165.494949h463.385858c18.230303 0 33.09899-14.868687 33.09899-33.09899 0-18.230303-14.868687-33.09899-33.09899-33.09899H280.048485c-18.230303 0-33.09899 14.868687-33.09899 33.09899 0 18.230303 14.739394 33.09899 33.09899 33.09899z m395.507071 395.507071c12.929293-12.929293 12.929293-33.874747 0-46.80404l-234.020202-234.020203-93.608081-46.80404 46.933333 93.608081 234.020202 234.020202c12.8 12.929293 33.745455 12.929293 46.674748 0z m0 0"  horiz-adv-x="1024" />

    


  </font>
</defs>
</svg>
